<svg width="317" height="1167" viewBox="0 0 317 1167" fill="none" xmlns="http://www.w3.org/2000/svg">
<g filter="url(#filter0_d_0_5)">
<mask id="path-1-inside-1_0_5" fill="white">
<path fill-rule="evenodd" clip-rule="evenodd" d="M289.93 842.789C289.93 854.27 300.966 863.578 314.58 863.578C314.72 863.578 314.86 863.577 315 863.575L315 1132.99C315 1150.67 300.666 1165 282.985 1165L32.015 1165C14.3336 1165 7.17731e-05 1150.67 7.2546e-05 1132.99L0.000206392 863.578C13.614 863.578 24.6501 854.27 24.6501 842.789C24.6501 831.307 13.614 822 0.00020821 822L0.00018536 646.578C13.614 646.578 24.6501 637.27 24.6501 625.789C24.6501 614.307 13.614 605 0.000187178 605L9.01533e-05 32.0149C9.09262e-05 14.3335 14.3336 -4.60306e-06 32.015 -4.39221e-06L282.985 -1.39942e-06C300.667 -1.18857e-06 315 14.3336 315 32.0149L315 605.003C314.86 605.001 314.72 605 314.58 605C300.966 605 289.93 614.307 289.93 625.789C289.93 637.27 300.966 646.578 314.58 646.578C314.72 646.578 314.86 646.577 315 646.575L315 822.003C314.86 822.001 314.72 822 314.58 822C300.966 822 289.93 831.307 289.93 842.789Z"/>
</mask>
<path fill-rule="evenodd" clip-rule="evenodd" d="M289.93 842.789C289.93 854.27 300.966 863.578 314.58 863.578C314.72 863.578 314.86 863.577 315 863.575L315 1132.99C315 1150.67 300.666 1165 282.985 1165L32.015 1165C14.3336 1165 7.17731e-05 1150.67 7.2546e-05 1132.99L0.000206392 863.578C13.614 863.578 24.6501 854.27 24.6501 842.789C24.6501 831.307 13.614 822 0.00020821 822L0.00018536 646.578C13.614 646.578 24.6501 637.27 24.6501 625.789C24.6501 614.307 13.614 605 0.000187178 605L9.01533e-05 32.0149C9.09262e-05 14.3335 14.3336 -4.60306e-06 32.015 -4.39221e-06L282.985 -1.39942e-06C300.667 -1.18857e-06 315 14.3336 315 32.0149L315 605.003C314.86 605.001 314.72 605 314.58 605C300.966 605 289.93 614.307 289.93 625.789C289.93 637.27 300.966 646.578 314.58 646.578C314.72 646.578 314.86 646.577 315 646.575L315 822.003C314.86 822.001 314.72 822 314.58 822C300.966 822 289.93 831.307 289.93 842.789Z" fill="#FEF8F1"/>
<path d="M315 863.575L316.601 863.575L316.601 861.952L314.978 861.974L315 863.575ZM315 1132.99L316.601 1132.99L315 1132.99ZM7.2546e-05 1132.99L-1.60067 1132.99L7.2546e-05 1132.99ZM0.000206392 863.578L0.000206462 861.977L-1.60053 861.977L-1.60053 863.578L0.000206392 863.578ZM0.00020821 822L-1.60053 822L-1.60053 823.6L0.00020814 823.6L0.00020821 822ZM0.00018536 646.578L0.00018543 644.977L-1.60055 644.977L-1.60055 646.578L0.00018536 646.578ZM0.000187178 605L-1.60055 605L-1.60055 606.6L0.000187108 606.6L0.000187178 605ZM9.01533e-05 32.0149L-1.60065 32.0149L9.01533e-05 32.0149ZM32.015 -4.39221e-06L32.015 -1.60075L32.015 -4.39221e-06ZM282.985 -1.39942e-06L282.985 1.60074L282.985 -1.39942e-06ZM315 32.0149L316.601 32.0149L315 32.0149ZM315 605.003L314.978 606.603L316.601 606.626L316.601 605.003L315 605.003ZM315 646.575L316.601 646.575L316.601 644.952L314.978 644.974L315 646.575ZM315 822.003L314.978 823.603L316.601 823.626L316.601 822.003L315 822.003ZM314.58 861.977C301.584 861.977 291.531 853.142 291.531 842.789L288.329 842.789C288.329 855.399 300.348 865.179 314.58 865.179L314.58 861.977ZM314.978 861.974C314.845 861.976 314.713 861.977 314.58 861.977L314.58 865.179C314.728 865.179 314.875 865.178 315.022 865.176L314.978 861.974ZM316.601 1132.99L316.601 863.575L313.399 863.575L313.399 1132.99L316.601 1132.99ZM282.985 1166.6C301.551 1166.6 316.601 1151.55 316.601 1132.99L313.399 1132.99C313.399 1149.78 299.782 1163.4 282.985 1163.4L282.985 1166.6ZM32.015 1166.6L282.985 1166.6L282.985 1163.4L32.015 1163.4L32.015 1166.6ZM-1.60067 1132.99C-1.60067 1151.55 13.4496 1166.6 32.015 1166.6L32.015 1163.4C15.2177 1163.4 1.60081 1149.78 1.60081 1132.99L-1.60067 1132.99ZM-1.60053 863.578L-1.60067 1132.99L1.60081 1132.99L1.60094 863.578L-1.60053 863.578ZM23.0494 842.789C23.0494 853.142 12.9963 861.977 0.000206462 861.977L0.000206322 865.179C14.2317 865.179 26.2508 855.399 26.2508 842.789L23.0494 842.789ZM0.00020814 823.6C12.9963 823.6 23.0494 832.436 23.0494 842.789L26.2508 842.789C26.2508 830.179 14.2317 820.399 0.00020828 820.399L0.00020814 823.6ZM-1.60055 646.578L-1.60053 822L1.60095 822L1.60092 646.578L-1.60055 646.578ZM23.0494 625.789C23.0493 636.142 12.9963 644.977 0.00018543 644.977L0.00018529 648.179C14.2317 648.179 26.2508 638.399 26.2508 625.789L23.0494 625.789ZM0.000187108 606.6C12.9963 606.6 23.0494 615.436 23.0494 625.789L26.2508 625.789C26.2508 613.179 14.2317 603.399 0.000187248 603.399L0.000187108 606.6ZM-1.60065 32.0149L-1.60055 605L1.60093 605L1.60083 32.0149L-1.60065 32.0149ZM32.015 -1.60075C13.4496 -1.60075 -1.60065 13.4495 -1.60065 32.0149L1.60083 32.0149C1.60083 15.2176 15.2177 1.60074 32.015 1.60074L32.015 -1.60075ZM282.985 -1.60075L32.015 -1.60075L32.015 1.60074L282.985 1.60074L282.985 -1.60075ZM316.601 32.0149C316.601 13.4495 301.551 -1.60075 282.985 -1.60075L282.985 1.60074C299.782 1.60075 313.399 15.2176 313.399 32.0149L316.601 32.0149ZM316.601 605.003L316.601 32.0149L313.399 32.0149L313.399 605.003L316.601 605.003ZM314.58 606.6C314.713 606.6 314.845 606.601 314.978 606.603L315.022 603.402C314.875 603.4 314.728 603.399 314.58 603.399L314.58 606.6ZM291.531 625.789C291.531 615.436 301.584 606.6 314.58 606.6L314.58 603.399C300.348 603.399 288.329 613.179 288.329 625.789L291.531 625.789ZM314.58 644.977C301.584 644.977 291.531 636.142 291.531 625.789L288.329 625.789C288.329 638.399 300.348 648.179 314.58 648.179L314.58 644.977ZM314.978 644.974C314.845 644.976 314.713 644.977 314.58 644.977L314.58 648.179C314.728 648.179 314.875 648.178 315.022 648.176L314.978 644.974ZM316.601 822.003L316.601 646.575L313.399 646.575L313.399 822.003L316.601 822.003ZM314.58 823.6C314.713 823.6 314.845 823.601 314.978 823.603L315.022 820.402C314.875 820.4 314.728 820.399 314.58 820.399L314.58 823.6ZM291.531 842.789C291.531 832.436 301.584 823.6 314.58 823.6L314.58 820.399C300.348 820.399 288.329 830.179 288.329 842.789L291.531 842.789Z" fill="black" mask="url(#path-1-inside-1_0_5)"/>
<circle cx="269.041" cy="626.347" r="2.34761" transform="rotate(90 269.041 626.347)" fill="#1A1A1A"/>
<circle cx="49.5389" cy="626.347" r="2.34761" transform="rotate(90 49.5389 626.347)" fill="#1A1A1A"/>
<circle cx="69.4937" cy="626.347" r="2.34761" transform="rotate(90 69.4937 626.347)" fill="#1A1A1A"/>
<circle cx="89.448" cy="626.347" r="2.34761" transform="rotate(90 89.448 626.347)" fill="#1A1A1A"/>
<circle cx="109.403" cy="626.347" r="2.34761" transform="rotate(90 109.403 626.347)" fill="#1A1A1A"/>
<circle cx="129.358" cy="626.347" r="2.34761" transform="rotate(90 129.358 626.347)" fill="#1A1A1A"/>
<circle cx="149.312" cy="626.347" r="2.34761" transform="rotate(90 149.312 626.347)" fill="#1A1A1A"/>
<circle cx="169.267" cy="626.347" r="2.34761" transform="rotate(90 169.267 626.347)" fill="#1A1A1A"/>
<circle cx="189.221" cy="626.347" r="2.34761" transform="rotate(90 189.221 626.347)" fill="#1A1A1A"/>
<circle cx="209.176" cy="626.347" r="2.34761" transform="rotate(90 209.176 626.347)" fill="#1A1A1A"/>
<circle cx="229.131" cy="626.347" r="2.34761" transform="rotate(90 229.131 626.347)" fill="#1A1A1A"/>
<circle cx="249.086" cy="626.347" r="2.34761" transform="rotate(90 249.086 626.347)" fill="#1A1A1A"/>
<circle cx="269.041" cy="843.347" r="2.34761" transform="rotate(90 269.041 843.347)" fill="#1A1A1A"/>
<circle cx="49.5389" cy="843.347" r="2.34761" transform="rotate(90 49.5389 843.347)" fill="#1A1A1A"/>
<circle cx="69.4937" cy="843.347" r="2.34761" transform="rotate(90 69.4937 843.347)" fill="#1A1A1A"/>
<circle cx="89.448" cy="843.347" r="2.34761" transform="rotate(90 89.448 843.347)" fill="#1A1A1A"/>
<circle cx="109.403" cy="843.347" r="2.34761" transform="rotate(90 109.403 843.347)" fill="#1A1A1A"/>
<circle cx="129.358" cy="843.347" r="2.34761" transform="rotate(90 129.358 843.347)" fill="#1A1A1A"/>
<circle cx="149.312" cy="843.347" r="2.34761" transform="rotate(90 149.312 843.347)" fill="#1A1A1A"/>
<circle cx="169.267" cy="843.347" r="2.34761" transform="rotate(90 169.267 843.347)" fill="#1A1A1A"/>
<circle cx="189.221" cy="843.347" r="2.34761" transform="rotate(90 189.221 843.347)" fill="#1A1A1A"/>
<circle cx="209.176" cy="843.347" r="2.34761" transform="rotate(90 209.176 843.347)" fill="#1A1A1A"/>
<circle cx="229.131" cy="843.347" r="2.34761" transform="rotate(90 229.131 843.347)" fill="#1A1A1A"/>
<circle cx="249.086" cy="843.347" r="2.34761" transform="rotate(90 249.086 843.347)" fill="#1A1A1A"/>
</g>
<defs>
<filter id="filter0_d_0_5" x="6.10352e-05" y="0" width="316.601" height="1166.6" filterUnits="userSpaceOnUse" color-interpolation-filters="sRGB">
<feFlood flood-opacity="0" result="BackgroundImageFix"/>
<feColorMatrix in="SourceAlpha" type="matrix" values="0 0 0 0 0 0 0 0 0 0 0 0 0 0 0 0 0 0 127 0" result="hardAlpha"/>
<feOffset dx="1.60075" dy="1.60075"/>
<feComposite in2="hardAlpha" operator="out"/>
<feColorMatrix type="matrix" values="0 0 0 0 0.101961 0 0 0 0 0.101961 0 0 0 0 0.101961 0 0 0 1 0"/>
<feBlend mode="normal" in2="BackgroundImageFix" result="effect1_dropShadow_0_5"/>
<feBlend mode="normal" in="SourceGraphic" in2="effect1_dropShadow_0_5" result="shape"/>
</filter>
</defs>
</svg>
